# xmcd
# 
# Track frame offsets:
#     150
#     106952
#     125083
#     148664
#     178275
#     212464
# 
# Disc length: 3391
# 
# Revision: 2
# Processed by: cddbd v1.5.2PL0 Copyright (c) Steve Scherf et al.
# Submitted via: fre:ac v1.0.27
# 
DISCID=590d3d06
DTITLE=Henrik Freischlader Band - LIC SHOW NO 27 CD 4
DYEAR=2013
DGENRE=Blues Rock
TTITLE0=BREAKOUT
TTITLE1=HEAR YOU TALKING
TTITLE2=WITH THE FLOW
TTITLE3=HOUSE IN THE WOODS
TTITLE4=COME TOGETHER
TTITLE5=WON'T YOU HELP ME
EXTD=
EXTT0=
EXTT1=
EXTT2=
EXTT3=
EXTT4=
EXTT5=
PLAYORDER=
